<svg width="45" height="45" viewBox="0 0 45 45" fill="none" xmlns="http://www.w3.org/2000/svg">
<path d="M28.125 37.125C29.1196 37.125 30.0734 37.5201 30.7766 38.2234C31.4799 38.9266 31.875 39.8804 31.875 40.875C31.875 41.8696 31.4799 42.8234 30.7766 43.5266C30.0734 44.2299 29.1196 44.625 28.125 44.625C27.1304 44.625 26.1766 44.2299 25.4734 43.5266C24.7701 42.8234 24.375 41.8696 24.375 40.875C24.375 39.8804 24.7701 38.9266 25.4734 38.2234C26.1766 37.5201 27.1304 37.125 28.125 37.125ZM28.125 39C27.6277 39 27.1508 39.1975 26.7992 39.5492C26.4475 39.9008 26.25 40.3777 26.25 40.875C26.25 41.3723 26.4475 41.8492 26.7992 42.2008C27.1508 42.5525 27.6277 42.75 28.125 42.75C28.6223 42.75 29.0992 42.5525 29.4508 42.2008C29.8025 41.8492 30 41.3723 30 40.875C30 40.3777 29.8025 39.9008 29.4508 39.5492C29.0992 39.1975 28.6223 39 28.125 39ZM11.25 37.125C12.2446 37.125 13.1984 37.5201 13.9016 38.2234C14.6049 38.9266 15 39.8804 15 40.875C15 41.8696 14.6049 42.8234 13.9016 43.5266C13.1984 44.2299 12.2446 44.625 11.25 44.625C10.2554 44.625 9.30161 44.2299 8.59835 43.5266C7.89509 42.8234 7.5 41.8696 7.5 40.875C7.5 39.8804 7.89509 38.9266 8.59835 38.2234C9.30161 37.5201 10.2554 37.125 11.25 37.125ZM11.25 39C10.7527 39 10.2758 39.1975 9.92418 39.5492C9.57254 39.9008 9.375 40.3777 9.375 40.875C9.375 41.3723 9.57254 41.8492 9.92418 42.2008C10.2758 42.5525 10.7527 42.75 11.25 42.75C11.7473 42.75 12.2242 42.5525 12.5758 42.2008C12.9275 41.8492 13.125 41.3723 13.125 40.875C13.125 40.3777 12.9275 39.9008 12.5758 39.5492C12.2242 39.1975 11.7473 39 11.25 39ZM31.875 14.625H6.13125L10.9125 25.875H26.25C26.8687 25.875 27.4125 25.575 27.75 25.125L33.375 17.625C33.6187 17.3062 33.75 16.9125 33.75 16.5C33.75 16.0027 33.5525 15.5258 33.2008 15.1742C32.8492 14.8225 32.3723 14.625 31.875 14.625ZM26.25 27.75H11.0062L9.5625 30.675L9.375 31.5C9.375 31.9973 9.57254 32.4742 9.92418 32.8258C10.2758 33.1775 10.7527 33.375 11.25 33.375H31.875V35.25H11.25C10.2554 35.25 9.30161 34.8549 8.59835 34.1516C7.89509 33.4484 7.5 32.4946 7.5 31.5C7.49944 30.8638 7.66075 30.2379 7.96875 29.6812L9.31875 26.925L2.5125 10.875H0V9H3.75L5.34375 12.75H31.875C32.8696 12.75 33.8234 13.1451 34.5266 13.8483C35.2299 14.5516 35.625 15.5054 35.625 16.5C35.625 17.4375 35.3062 18.225 34.7812 18.8625L29.325 26.1562C28.65 27.1125 27.525 27.75 26.25 27.75Z" fill="#7A2728"/>
</svg>
