<svg width="55" height="52" viewBox="0 0 55 52" fill="none" xmlns="http://www.w3.org/2000/svg">
<path fill-rule="evenodd" clip-rule="evenodd" d="M35.6345 7.0278L35.4337 7.2332C34.5152 8.1822 33.9487 8.723 33.4812 9.074C33.0366 8.52544 32.5957 7.97423 32.1585 7.4204C31.3637 6.448 30.7037 5.7434 30.0272 5.2052C29.2022 4.5448 28.3827 4.1652 27.5 4.1652C27.0343 4.16867 26.5842 4.2718 26.1497 4.4746C25.0855 4.9634 24.1945 5.8812 23.001 7.4594C22.8497 7.657 22.473 8.1666 22.2475 8.4734L22.0742 8.7074L21.7827 9.0896L21.7387 9.0584C21.2465 8.7022 20.6552 8.1588 19.679 7.1942L19.4892 7.007C18.0235 5.551 17.6247 5.1688 17.0115 4.6956C16.511 4.3108 16.0792 4.0638 15.609 3.9546C15.1799 3.84192 14.7214 3.88979 14.3286 4.08829C13.9358 4.28679 13.639 4.62066 13.4997 5.0206C12.7503 6.98584 12.3697 9.05973 12.375 11.1488C12.375 20.7324 17.919 27.3 27.5 27.3C37.081 27.3 42.625 20.7324 42.625 11.1488C42.6294 9.05958 42.2479 6.98568 41.4975 5.0206C41.3577 4.62172 41.061 4.28889 40.669 4.09097C40.2769 3.89304 39.8194 3.84515 39.391 3.9572C38.9235 4.069 38.5 4.3212 38.016 4.7112C37.422 5.187 37.0535 5.5562 35.6345 7.0252M15.125 11.1488C15.125 9.7448 15.3202 8.3694 15.6997 7.0616C16.0655 7.384 16.5385 7.8468 17.4982 8.801L17.6907 8.9908C18.766 10.0542 19.4232 10.6548 20.064 11.1228C21.3152 12.0276 22.4675 12.3474 23.43 11.3074C23.6885 11.0292 23.9525 10.6964 24.3182 10.2076C24.343 10.179 24.4172 10.0776 24.5162 9.9424L25.2367 8.9726C26.1635 7.7506 26.8455 7.046 27.3487 6.8146C27.396 6.78945 27.447 6.77105 27.5 6.76C27.6072 6.76 27.8767 6.89 28.2535 7.189C28.7485 7.579 29.2985 8.1692 29.9805 9.009C29.8925 8.8998 31.4792 10.907 31.8505 11.3048C32.813 12.35 33.968 12.0224 35.1835 11.1124C35.805 10.647 36.4402 10.0412 37.4632 8.9856L37.6667 8.7776C38.5275 7.8832 38.9785 7.4256 39.3167 7.1084C39.6886 8.42549 39.8763 9.78299 39.875 11.1462C39.875 19.409 35.409 24.7 27.5 24.7C19.591 24.7 15.125 19.409 15.125 11.1488Z" fill="#7A2728"/>
<path d="M26.125 28.6C26.125 28.2552 26.2699 27.9246 26.5277 27.6808C26.7856 27.437 27.1353 27.3 27.5 27.3C27.8647 27.3 28.2144 27.437 28.4723 27.6808C28.7301 27.9246 28.875 28.2552 28.875 28.6V45.5C28.875 45.8448 28.7301 46.1754 28.4723 46.4192C28.2144 46.663 27.8647 46.8 27.5 46.8C27.1353 46.8 26.7856 46.663 26.5277 46.4192C26.2699 46.1754 26.125 45.8448 26.125 45.5V28.6Z" fill="#7A2728"/>
<path fill-rule="evenodd" clip-rule="evenodd" d="M33.2448 34.8348C27.8135 39.143 24.2055 44.6784 26.708 47.4994C29.2628 50.3776 37.3203 48.5706 42.0805 44.7954C46.7143 41.119 48.7685 35.9502 46.1918 33.0486C43.615 30.1444 37.8758 31.1584 33.2448 34.8348ZM40.3123 42.8012C36.5668 45.7756 30.0603 47.2316 28.8173 45.8276C27.8163 44.7018 30.7423 40.2116 35.0103 36.8264C38.6348 33.9508 42.757 33.2228 44.0853 34.7204C45.4135 36.218 43.9368 39.9256 40.3123 42.8012Z" fill="#7A2728"/>
<path fill-rule="evenodd" clip-rule="evenodd" d="M20.9275 34.8348C26.3588 39.143 29.9695 44.6784 27.4643 47.4994C24.9123 50.3776 16.852 48.5706 12.0918 44.7954C7.45801 41.119 5.40651 35.9502 7.98326 33.0486C10.56 30.1444 16.2938 31.1584 20.9275 34.8348ZM13.8628 42.8012C17.611 45.7756 24.1148 47.2316 25.3605 45.8276C26.3615 44.7018 23.4355 40.2116 19.1648 36.8264C15.5403 33.9508 11.4208 33.2228 10.0898 34.7204C8.76426 36.2154 10.2383 39.9256 13.8628 42.8012Z" fill="#7A2728"/>
</svg>
