<svg width="52" height="25" viewBox="0 0 52 25" fill="none" xmlns="http://www.w3.org/2000/svg">
<path d="M9.50129 3.21126C8.89192 4.05249 7.91672 4.71623 6.94161 4.62133C6.81974 3.48389 7.29708 2.27512 7.85578 1.52855C8.46515 0.663626 9.53176 0.0473934 10.3951 0C10.4967 1.18495 10.1005 2.34621 9.50129 3.21126ZM10.3851 4.84656C8.97317 4.75178 7.76447 5.78258 7.09406 5.78258C6.41359 5.78258 5.38761 4.89396 4.27032 4.91765C2.81787 4.94135 1.46689 5.90107 0.725379 7.42974C-0.798261 10.487 0.329286 15.0136 1.80204 17.502C2.52324 18.7344 3.38662 20.0852 4.52422 20.0378C5.60099 19.9904 6.02755 19.2203 7.32775 19.2203C8.63801 19.2203 9.0139 20.0378 10.1515 20.0141C11.3297 19.9904 12.0712 18.7819 12.7924 17.5494C13.6151 16.1512 13.9503 14.7884 13.9707 14.7173C13.9503 14.6936 11.6954 13.6865 11.6751 10.6528C11.6548 8.11706 13.4527 6.90841 13.5339 6.83732C12.5181 5.08353 10.9336 4.89396 10.3851 4.84656ZM18.5416 1.41007V19.8839H20.9996V13.568H24.4023C27.5105 13.568 29.6944 11.0796 29.6944 7.47725C29.6944 3.875 27.5511 1.41019 24.4836 1.41019L18.5416 1.41007ZM20.9996 3.82749H23.8335C25.9666 3.82749 27.1855 5.15462 27.1855 7.48898C27.1855 9.82334 25.9666 11.1624 23.8233 11.1624H20.9996V3.82749ZM34.1838 20.0259C35.7278 20.0259 37.1599 19.1136 37.81 17.6679H37.8608V19.8838H40.1361V10.6884C40.1361 8.02227 38.3078 6.30403 35.4941 6.30403C32.8836 6.30403 30.9537 8.04597 30.8826 10.4396H33.097C33.2798 9.30201 34.1837 8.55545 35.423 8.55545C36.9263 8.55545 37.7694 9.3731 37.7694 10.8781V11.897L34.7018 12.1103C31.8476 12.3117 30.3037 13.6745 30.3037 16.0445C30.3037 18.4382 31.8984 20.0259 34.1838 20.0259ZM34.844 17.8338C33.5338 17.8338 32.7008 17.0992 32.7008 15.9733C32.7008 14.8122 33.5033 14.1367 35.0371 14.0301L37.7694 13.8287V14.8713C37.7694 16.6014 36.5099 17.8338 34.8441 17.8338M43.1732 24.9081C45.5704 24.9081 46.6978 23.8417 47.6831 20.6066L51.9999 6.48175H49.5012L46.6063 17.3953H46.5556L43.6607 6.48175H41.0909L45.2554 19.9312L45.0319 20.7488C44.6561 22.1352 44.0467 22.6685 42.9598 22.6685C42.7669 22.6685 42.3911 22.6448 42.2386 22.6211V24.837C42.3808 24.8844 42.9902 24.9081 43.1731 24.9081" fill="black"/>
</svg>
