<svg width="60" height="54" viewBox="0 0 60 54" fill="none" xmlns="http://www.w3.org/2000/svg">
<path d="M41.3475 20.6684C40.1847 20.2893 38.9567 20.0981 37.72 20.1036C33.72 20.1036 30.895 21.9171 30.875 24.5204C30.85 26.4329 32.8825 27.5106 34.42 28.1496C35.9975 28.8066 36.525 29.2206 36.52 29.8079C36.51 30.7011 35.26 31.1061 34.0975 31.1061C32.5 31.1061 31.6275 30.9059 30.285 30.4041L29.7875 30.1949L29.22 33.1919C30.1925 33.5564 31.945 33.8691 33.755 33.8961C38.0075 33.8961 40.7875 32.0939 40.82 29.3241C40.855 27.7964 39.755 26.6421 37.44 25.6881C36.0325 25.0694 35.16 24.6554 35.16 24.0276C35.16 23.4719 35.9075 22.8779 37.47 22.8779C38.5099 22.8552 39.5433 23.0308 40.5025 23.3931L40.8775 23.5439L41.445 20.6481L41.3475 20.6684ZM51.7275 20.3466H48.6025C47.63 20.3466 46.8975 20.5874 46.4725 21.4559L40.4625 33.7094H44.715L45.565 31.7001L50.755 31.7046C50.8775 32.1749 51.2525 33.7094 51.2525 33.7094H55.0025L51.7275 20.3466ZM25.1225 20.2341H29.175L26.64 33.6036H22.5925L25.1225 20.2296V20.2341ZM14.835 27.6029L15.255 29.4591L19.215 20.3466H23.5075L17.13 33.6914H12.8475L9.3475 22.3919C9.29058 22.2057 9.15751 22.0457 8.97499 21.9441C7.71297 21.3587 6.37648 20.9137 4.995 20.6189L5.05 20.3376H11.5725C12.4575 20.3691 13.17 20.6189 13.4075 21.4694L14.8325 27.6096L14.835 27.6029ZM46.7275 28.9664L48.3425 25.2269C48.3225 25.2674 48.675 24.4551 48.88 23.9534L49.1575 25.1076L50.095 28.9641H46.725L46.7275 28.9664Z" fill="black"/>
</svg>
